PathFileType	4	(X/Y/Z)	C:/Users/beibeiliu/ov580/test_trc/User2\sequence.32_training_dense_right.trc
DataRate	CameraRate	NumFrames	NumMarkers	Units	OrigDataRate	OrigDataStartFrame	OrigNumFrames
120	120	10	19	mm	120	84	111
Frame#	Time	ThumbCMC			ThumbMCP			ThumbIP			ThumbTip			IndexMCP			IndexPIP			IndexTip			MiddleMCP			MiddlePIP			MiddleTip			RingMCP			RingPIP			RingTip			PinkyMCP			PinkyPIP			PinkyTip			BackHand1			BackHand2			BackHand3	
		X0	Y0	Z0	X1	Y1	Z1	X2	Y2	Z2	X3	Y3	Z3	X4	Y4	Z4	X5	Y5	Z5	X6	Y6	Z6	X7	Y7	Z7	X8	Y8	Z8	X9	Y9	Z9	X10	Y10	Z10	X11	Y11	Z11	X12	Y12	Z12	X13	Y13	Z13	X14	Y14	Z14	X15	Y15	Z15	X16	Y16	Z16	X17	Y17	Z17	X18	Y18	Z18	
83	0.691667	106.323	35.655	-25.7332	79.2121	27.1921	-45.3868	57.7303	20.2167	-66.5081	39.2143	13.027	-82.4318	135.151	48.4108	-104.533	131.022	53.4332	-133.886	131.534	56.3873	-160.581	152.364	14.9541	-109.861	138.103	-18.0431	-112.269	127.873	-19.8704	-72.8152	162.804	-3.18423	-98.3543	148.809	-30.6814	-92.2657	136.805	-18.4267	-57.2194	175.368	-15.9492	-85.621	152.807	-35.653	-72.7476	145.882	-23.0089	-46.8042	180.324	34.1148	-48.6506	178.2	38.2723	-11.931	146.148	51.6309	-36.4063	
84	0.7	97.6299	28.2268	-24.6331	73.7909	19.687	-42.9626	45.7401	13.4424	-63.9929	29.6769	5.26132	-75.3123	119.972	34.8825	-107.49	122.089	32.4394	-134.91	122.411	33.3125	-161.73	139.107	-0.961389	-105.348	125.85	-36.6774	-99.8508	121.572	-27.9221	-59.9895	150.293	-21.3398	-94.7678	139.855	-46.1722	-77.9365	129.045	-24.8487	-49.7769	169.007	-25.6389	-77.9219	147.235	-48.3286	-61.4628	139.645	-25.9962	-39.5272	166.198	26.5596	-52.2602	168.407	33.2803	-16.6765	137.456	40.9953	-38.665	
85	0.708333	93.1567	25.7266	-23.0735	67.0325	19.1917	-36.7968	42.2423	12.295	-58.0299	19.1504	9.06485	-64.759	112.55	20.0091	-103.447	110.586	16.2384	-131.444	110.69	12.238	-159.857	125.87	-17.2778	-102.393	115.783	-47.5032	-91.0222	109.219	-31.8233	-50.1174	142.578	-36.3088	-85.121	124.437	-53.0018	-68.9638	123.246	-29.9017	-38.2499	154.318	-40.6127	-71.0962	134.303	-53.7069	-50.2911	132.05	-24.6421	-31.6305	160.151	17.4878	-48.6012	163.15	26.5	-13.39	132.8	35.82	-33.8783	
86	0.716667	93.2995	35.7546	-17.4162	65.9198	35.3869	-26.5147	36.6557	35.0999	-47.9202	16.2093	34.4802	-51.1816	101.961	13.8898	-101.043	96.2074	5.37561	-122.169	93.3241	-5.09368	-153.302	111.464	-23.5824	-92.1047	91.9114	-49.8731	-74.0655	93.2995	-26.8797	-39.0539	120.709	-44.7096	-74.7687	100.991	-52.2357	-52.3273	106.208	-23.3107	-30.1833	134.518	-47.5733	-60.7415	111.606	-51.2169	-37.2219	117.137	-24.7964	-21.3455	154.514	6.37183	-49.1939	165.125	22.0281	-17.0432	132.046	34.7075	-37.0969	
87	0.725	103.473	52.1062	-10.7565	74.9757	60.9963	-24.4203	45.1351	71.0544	-38.7591	23.6765	76.7125	-46.057	91.0295	19.4097	-93.2465	78.2853	12.0224	-113.254	64.9746	4.29144	-137.44	84.7537	-15.9934	-82.1592	61.254	-29.6662	-60.8579	75.4492	-13.7732	-26.8108	91.5476	-35.4267	-64.7785	75.2087	-39.3815	-37.9732	89.7915	-13.082	-19.098	106.112	-46.2086	-49.3647	87.3196	-39.1444	-24.0992	105.94	-14.9896	-9.77648	146.871	0.921407	-46.7342	160.283	13.3221	-19.3534	134.11	35.8101	-33.0389	
88	0.733333	115.506	64.5106	-10.022	91.5666	84.6339	-20.7794	66.7648	98.4188	-35.0667	45.6367	109.561	-43.7205	80.6203	31.3845	-85.5446	61.6045	25.2542	-108.14	41.3004	20.7553	-127.991	64.8736	-0.490601	-72.1248	39.3243	-3.95255	-49.2543	59.6782	12.9578	-16.0804	63.5012	-14.0224	-53.5815	50.6099	-10.4101	-25.4849	80.1917	5.67426	-8.71213	77.0759	-28.5483	-40.5512	63.8209	-17.0171	-10.2409	92.07	1.70313	-2.0761	126.682	0.330177	-46.2443	151.153	8.82119	-22.4469	132.976	37.74	-36.396	
89	0.741667	120.658	68.6443	-16.8104	105.997	92.2508	-24.1488	86.4726	116.532	-40.5393	71.9565	130.86	-44.9205	71.2355	46.1301	-80.4353	51.6372	48.0495	-98.5063	27.286	40.1175	-118.538	49.7483	21.9947	-62.7978	23.9385	30.6175	-37.2724	51.6453	40.2864	-9.01143	43.5021	9.10692	-43.0424	34.2747	16.1583	-15.8697	66.3338	29.0628	-3.00122	51.4024	-9.74933	-27.7084	44.5769	9.42367	-3.15813	74.6181	18.5606	6.86056	111.245	-0.879155	-39.552	136.76	0.134181	-20.1228	126.978	37.1719	-39.5475	
90	0.75	128.08	69.0881	-18.0875	118.721	95.749	-32.4326	105.252	121.95	-50.5192	98.548	142.914	-55.9161	66.3805	60.653	-79.6762	44.7071	61.4974	-93.6124	22.1999	66.0058	-110.773	40.5647	43.4698	-57.2657	19.0762	62.1489	-32.4064	45.1264	64.1589	-3.15039	31.9989	30.9814	-34.7892	28.8624	49.1728	-6.37456	63.739	46.5583	2.26534	35.8436	16.2537	-19.8249	35.2211	35.8637	7.73827	65.6054	36.4438	10.2972	90.8763	7.57727	-37.342	123.695	1.85343	-15.646	120.213	35.7846	-39.5255	
91	0.758333	129.432	60.118	-23.4054	129.971	88.3292	-42.1059	123.135	113.344	-55.8586	122.902	135.435	-67.5607	62.8407	64.5064	-77.3056	42.2345	75.2715	-95.8222	20.4011	81.6733	-109.749	36.4635	62.1715	-54.2183	23.6168	87.0513	-27.4763	52.9264	83.0607	-2.42562	27.2496	55.2252	-30.5944	30.1709	72.4708	-1.57039	63.116	64.6518	3.20182	26.2844	36.6525	-12.0562	36.9042	61.1514	10.3577	65.115	52.0933	11.674	76.368	11.6774	-33.5651	106.198	-2.01806	-14.0115	113.882	30.627	-37.4677	
92	0.766667	135.639	52.1312	-31.8867	138.164	74.8236	-47.8939	140.606	101.214	-69.2937	138.617	120.678	-80.966	69.6528	66.5933	-81.9735	49.6723	77.0228	-100.76	27.7754	85.0343	-113.928	42.8339	70.1641	-58.0805	37.0128	99.7788	-35.1942	61.1793	90.7824	-6.59946	34.6042	67.3245	-33.2451	37.1512	86.3898	-9.53299	72.5804	68.0683	1.062	28.6143	54.6294	-13.3218	41.9604	75.6602	4.1787	72.9565	59.966	7.68857	73.0477	13.1884	-31.6651	99.618	-5.05791	-12.0895	111.394	25.2408	-38.9438	
